{"title":"Two.Lovers.2008.DVDRiP.XviD.SWESUB-Zen_Bud","uid":5901316,"size":1483872256,"categoryP":"video","categoryS":"movies","magnet":"?xt=urn:btih:8c4221a2b5175c5b792647ba48bbacb78c720439&amp;dn=Two.Lovers.2008.DVDRiP.XviD.SWESUB-Zen_Bud&amp;tr=udp%3A%2F%2Ftracker.openbittorrent.com%3A80&amp;tr=udp%3A%2F%2Fopen.demonii.com%3A1337&amp;tr=udp%3A%2F%2Ftracker.coppersurfer.tk%3A6969&amp;tr=udp%3A%2F%2Fexodus.desync.com%3A6969","seeders":1,"leechers":0,"uploader":"Zen_Bud","files":-1,"time":1287683168,"description":"******* Two.Lovers.2008.DVDRiP.XviD.SWESUB-Zen_Bud ********\n\nFormat                           : AVI\nFile size                        : 1.38 GiB\nDuration                         : 1h 45mn\nOverall bit rate                 : 1 875 Kbps\n\n\nVideo\n\nFormat                           : MPEG-4 Visual\nCodec ID/Hint                    : XviD\nDuration                         : 1h 45mn\nBit rate                         : 1 737 Kbps\nWidth                            : 688 pixels\nHeight                           : 384 pixels\nDisplay aspect ratio             : 16:9\nStream size                      : 1.28 GiB (93%)\nWriting library                  : XviD 1.2.1 (UTC 2008-12-04)\n\nAudio\n\nFormat                           : MPEG Audio\nCodec ID/Hint                    : MP3\nDuration                         : 1h 45mn\nBit rate                         : 128 Kbps\nChannel(s)                       : 2 channels\nSampling rate                    : 48.0 KHz\nStream size                      : 96.6 MiB (7%)\nWriting library                  : LAME3.97 \n\n\nA Brooklyn-set romantic drama about a bachelor \n\n(Phoenix) torn between the family friend his parents\n \nwish he would marry and his beautiful but volatile new neighbor. ","torrent":{"xt":"urn:btih:8c4221a2b5175c5b792647ba48bbacb78c720439","amp;dn":"Two.Lovers.2008.DVDRiP.XviD.SWESUB-Zen_Bud","amp;tr":["udp%3A%2F%2Ftracker.openbittorrent.com%3A80","udp%3A%2F%2Fopen.demonii.com%3A1337","udp%3A%2F%2Ftracker.coppersurfer.tk%3A6969","udp%3A%2F%2Fexodus.desync.com%3A6969"],"infoHash":"8c4221a2b5175c5b792647ba48bbacb78c720439","infoHashBuffer":{"type":"Buffer","data":[140,66,33,162,181,23,92,91,121,38,71,186,72,187,172,183,140,114,4,57]},"announce":[],"urlList":[]}}